<?xml version="1.0" encoding="utf-8"?>
<!-- Generator: Adobe Illustrator 28.1.0, SVG Export Plug-In . SVG Version: 6.00 Build 0)  -->
<svg version="1.1" id="Layer_1" xmlns="http://www.w3.org/2000/svg" xmlns:xlink="http://www.w3.org/1999/xlink" x="0px" y="0px"
	 viewBox="0 0 1087.6 435.2" style="enable-background:new 0 0 1087.6 435.2;" xml:space="preserve">
<style type="text/css">
	.st0{fill:#FFFFFF;}
</style>
<g>
	<path class="st0" d="M378.5,283.4c-0.3-1-0.8-2-1.3-2.8c-0.5-0.8-1.2-1.5-2-2.1c-0.8-0.6-1.6-1-2.6-1.3c-1-0.3-2-0.5-3.2-0.5
		c-2,0-3.7,0.5-5.3,1.5s-2.8,2.5-3.7,4.4c-0.9,1.9-1.4,4.3-1.4,7.1c0,2.8,0.5,5.2,1.4,7.1s2.2,3.4,3.8,4.4c1.6,1,3.4,1.5,5.4,1.5
		c1.9,0,3.5-0.4,4.9-1.2c1.4-0.8,2.5-1.9,3.3-3.3c0.8-1.4,1.2-3.1,1.2-5l1.4,0.3h-9.9v-4.3h13.6v3.9c0,2.9-0.6,5.4-1.9,7.6
		c-1.2,2.1-2.9,3.8-5.1,5c-2.2,1.2-4.7,1.7-7.5,1.7c-3.1,0-5.9-0.7-8.3-2.2c-2.4-1.4-4.2-3.5-5.5-6.2c-1.3-2.7-2-5.8-2-9.5
		c0-2.8,0.4-5.3,1.2-7.5c0.8-2.2,1.8-4.1,3.2-5.6c1.4-1.5,3-2.7,4.9-3.5c1.9-0.8,4-1.2,6.2-1.2c1.9,0,3.6,0.3,5.2,0.8
		c1.6,0.6,3.1,1.3,4.3,2.4c1.3,1,2.3,2.2,3.2,3.6c0.8,1.4,1.4,2.9,1.7,4.6H378.5z"/>
	<path class="st0" d="M390.4,307.2v-26h4.9v4.1h0.3c0.5-1.4,1.3-2.5,2.5-3.3c1.2-0.8,2.6-1.2,4.1-1.2c0.3,0,0.7,0,1.1,0
		c0.4,0,0.8,0.1,1,0.1v4.8c-0.2-0.1-0.6-0.1-1.1-0.2c-0.5-0.1-1-0.1-1.6-0.1c-1.2,0-2.3,0.3-3.2,0.8c-0.9,0.5-1.7,1.2-2.2,2.1
		c-0.5,0.9-0.8,1.9-0.8,3v15.9H390.4z"/>
	<path class="st0" d="M419,307.7c-2.6,0-4.8-0.6-6.6-1.7c-1.8-1.1-3.3-2.7-4.3-4.7c-1-2-1.5-4.4-1.5-7.1c0-2.7,0.5-5,1.5-7
		c1-2,2.4-3.6,4.2-4.8c1.8-1.1,3.9-1.7,6.3-1.7c1.5,0,2.9,0.2,4.3,0.7c1.4,0.5,2.6,1.2,3.7,2.3c1.1,1,2,2.4,2.6,4
		c0.6,1.7,0.9,3.7,0.9,6v1.8h-20.7v-3.8h15.7c0-1.3-0.3-2.5-0.8-3.5c-0.5-1-1.3-1.8-2.3-2.4c-1-0.6-2.1-0.9-3.4-0.9
		c-1.4,0-2.7,0.3-3.7,1c-1.1,0.7-1.9,1.6-2.4,2.7c-0.6,1.1-0.9,2.3-0.9,3.6v3c0,1.7,0.3,3.2,0.9,4.4c0.6,1.2,1.5,2.1,2.6,2.8
		c1.1,0.6,2.4,1,3.9,1c1,0,1.8-0.1,2.6-0.4s1.5-0.7,2.1-1.2s1-1.2,1.3-2.1l4.8,0.9c-0.4,1.4-1.1,2.6-2.1,3.7s-2.2,1.9-3.7,2.5
		C422.6,307.4,420.9,307.7,419,307.7z"/>
	<path class="st0" d="M447,307.7c-2.6,0-4.8-0.6-6.6-1.7c-1.8-1.1-3.3-2.7-4.3-4.7c-1-2-1.5-4.4-1.5-7.1c0-2.7,0.5-5,1.5-7
		c1-2,2.4-3.6,4.2-4.8c1.8-1.1,3.9-1.7,6.3-1.7c1.5,0,2.9,0.2,4.3,0.7c1.4,0.5,2.6,1.2,3.7,2.3c1.1,1,2,2.4,2.6,4
		c0.6,1.7,0.9,3.7,0.9,6v1.8h-20.7v-3.8h15.7c0-1.3-0.3-2.5-0.8-3.5c-0.5-1-1.3-1.8-2.3-2.4c-1-0.6-2.1-0.9-3.4-0.9
		c-1.4,0-2.7,0.3-3.7,1c-1.1,0.7-1.9,1.6-2.4,2.7c-0.6,1.1-0.9,2.3-0.9,3.6v3c0,1.7,0.3,3.2,0.9,4.4c0.6,1.2,1.5,2.1,2.6,2.8
		c1.1,0.6,2.4,1,3.9,1c1,0,1.8-0.1,2.6-0.4s1.5-0.7,2.1-1.2s1-1.2,1.3-2.1l4.8,0.9c-0.4,1.4-1.1,2.6-2.1,3.7s-2.2,1.9-3.7,2.5
		C450.6,307.4,448.9,307.7,447,307.7z"/>
	<path class="st0" d="M468.9,291.7v15.5h-5.1v-26h4.9v4.2h0.3c0.6-1.4,1.5-2.5,2.8-3.3c1.3-0.8,2.9-1.3,4.9-1.3
		c1.8,0,3.3,0.4,4.7,1.1c1.3,0.7,2.4,1.8,3.1,3.3c0.7,1.5,1.1,3.3,1.1,5.4v16.6h-5.1v-15.9c0-1.9-0.5-3.4-1.5-4.4
		c-1-1.1-2.3-1.6-4-1.6c-1.2,0-2.2,0.3-3.1,0.8c-0.9,0.5-1.6,1.3-2.2,2.2C469.1,289.2,468.9,290.4,468.9,291.7z"/>
	<path class="st0" d="M524.3,281.6c-0.2-1.6-0.9-2.8-2.2-3.7c-1.3-0.9-3-1.3-4.9-1.3c-1.4,0-2.7,0.2-3.7,0.7c-1,0.4-1.8,1.1-2.4,1.8
		c-0.6,0.8-0.9,1.7-0.9,2.6c0,0.8,0.2,1.5,0.6,2.1c0.4,0.6,0.9,1.1,1.5,1.5c0.6,0.4,1.3,0.7,2.1,1c0.7,0.3,1.4,0.5,2.1,0.7l3.4,0.9
		c1.1,0.3,2.2,0.6,3.4,1.1c1.2,0.5,2.2,1.1,3.2,1.8c1,0.8,1.8,1.7,2.4,2.8c0.6,1.1,0.9,2.5,0.9,4c0,2-0.5,3.7-1.5,5.2
		c-1,1.5-2.5,2.7-4.4,3.6c-1.9,0.9-4.2,1.3-6.9,1.3c-2.6,0-4.8-0.4-6.7-1.2c-1.9-0.8-3.4-2-4.5-3.5c-1.1-1.5-1.7-3.3-1.8-5.4h5.3
		c0.1,1.3,0.5,2.3,1.2,3.1c0.7,0.8,1.6,1.4,2.8,1.8c1.1,0.4,2.4,0.6,3.7,0.6c1.5,0,2.8-0.2,4-0.7c1.2-0.5,2.1-1.1,2.7-2
		c0.7-0.8,1-1.8,1-3c0-1-0.3-1.9-0.9-2.5c-0.6-0.7-1.4-1.2-2.4-1.6c-1-0.4-2.1-0.8-3.3-1.1l-4.1-1.1c-2.8-0.8-5-1.9-6.6-3.3
		c-1.6-1.5-2.4-3.4-2.4-5.8c0-2,0.5-3.7,1.6-5.2c1.1-1.5,2.6-2.7,4.4-3.5c1.9-0.8,3.9-1.2,6.3-1.2c2.3,0,4.4,0.4,6.2,1.2
		c1.8,0.8,3.2,2,4.3,3.4c1,1.4,1.6,3.1,1.6,5H524.3z"/>
	<path class="st0" d="M546.6,307.7c-2.4,0-4.6-0.6-6.4-1.7c-1.8-1.1-3.2-2.7-4.2-4.7c-1-2-1.5-4.4-1.5-7c0-2.7,0.5-5.1,1.5-7.1
		c1-2,2.4-3.6,4.2-4.7c1.8-1.1,3.9-1.7,6.4-1.7s4.6,0.6,6.4,1.7c1.8,1.1,3.2,2.7,4.2,4.7c1,2,1.5,4.4,1.5,7.1c0,2.7-0.5,5-1.5,7
		c-1,2-2.4,3.6-4.2,4.7C551.2,307.1,549,307.7,546.6,307.7z M546.6,303.5c1.6,0,2.9-0.4,3.9-1.3c1-0.8,1.8-1.9,2.3-3.3
		s0.8-2.9,0.8-4.6c0-1.7-0.3-3.2-0.8-4.6c-0.5-1.4-1.3-2.5-2.3-3.4c-1-0.8-2.3-1.3-3.9-1.3c-1.6,0-2.9,0.4-4,1.3
		c-1,0.8-1.8,2-2.3,3.4c-0.5,1.4-0.8,2.9-0.8,4.6c0,1.7,0.3,3.2,0.8,4.6c0.5,1.4,1.3,2.5,2.3,3.3C543.7,303,545,303.5,546.6,303.5z"
		/>
	<path class="st0" d="M569.4,272.5v34.7h-5.1v-34.7H569.4z"/>
	<path class="st0" d="M592.7,296.4v-15.2h5.1v26h-5v-4.5h-0.3c-0.6,1.4-1.6,2.5-2.9,3.5c-1.3,0.9-3,1.4-4.9,1.4
		c-1.7,0-3.1-0.4-4.4-1.1c-1.3-0.7-2.3-1.8-3-3.3c-0.7-1.5-1.1-3.3-1.1-5.4v-16.6h5.1v15.9c0,1.8,0.5,3.2,1.5,4.2
		c1,1.1,2.3,1.6,3.8,1.6c0.9,0,1.9-0.2,2.8-0.7c0.9-0.5,1.7-1.2,2.4-2.2C592.4,299.1,592.7,297.9,592.7,296.4z"/>
	<path class="st0" d="M616.8,281.2v4.1h-14.2v-4.1H616.8z M606.4,274.9h5.1v24.6c0,1,0.1,1.7,0.4,2.2c0.3,0.5,0.7,0.8,1.1,1
		c0.5,0.2,1,0.3,1.5,0.3c0.4,0,0.8,0,1.1-0.1s0.5-0.1,0.7-0.1l0.9,4.2c-0.3,0.1-0.7,0.2-1.3,0.3c-0.5,0.1-1.2,0.2-2,0.2
		c-1.3,0-2.6-0.2-3.7-0.7c-1.2-0.5-2.1-1.3-2.8-2.3c-0.7-1-1.1-2.3-1.1-3.9V274.9z"/>
	<path class="st0" d="M624.9,277.1c-0.9,0-1.6-0.3-2.3-0.9c-0.6-0.6-0.9-1.3-0.9-2.1c0-0.8,0.3-1.6,0.9-2.1c0.6-0.6,1.4-0.9,2.3-0.9
		c0.9,0,1.6,0.3,2.3,0.9c0.6,0.6,0.9,1.3,0.9,2.1c0,0.8-0.3,1.5-0.9,2.1C626.5,276.8,625.8,277.1,624.9,277.1z M622.3,307.2v-26h5.1
		v26H622.3z"/>
	<path class="st0" d="M645.2,307.7c-2.4,0-4.6-0.6-6.4-1.7c-1.8-1.1-3.2-2.7-4.2-4.7c-1-2-1.5-4.4-1.5-7c0-2.7,0.5-5.1,1.5-7.1
		c1-2,2.4-3.6,4.2-4.7c1.8-1.1,3.9-1.7,6.4-1.7c2.4,0,4.6,0.6,6.4,1.7c1.8,1.1,3.2,2.7,4.2,4.7c1,2,1.5,4.4,1.5,7.1
		c0,2.7-0.5,5-1.5,7c-1,2-2.4,3.6-4.2,4.7C649.8,307.1,647.6,307.7,645.2,307.7z M645.2,303.5c1.6,0,2.9-0.4,3.9-1.3
		c1-0.8,1.8-1.9,2.3-3.3c0.5-1.4,0.8-2.9,0.8-4.6c0-1.7-0.3-3.2-0.8-4.6c-0.5-1.4-1.3-2.5-2.3-3.4c-1-0.8-2.3-1.3-3.9-1.3
		c-1.6,0-2.9,0.4-4,1.3c-1,0.8-1.8,2-2.3,3.4c-0.5,1.4-0.8,2.9-0.8,4.6c0,1.7,0.3,3.2,0.8,4.6c0.5,1.4,1.3,2.5,2.3,3.3
		C642.3,303,643.6,303.5,645.2,303.5z"/>
	<path class="st0" d="M668,291.7v15.5H663v-26h4.9v4.2h0.3c0.6-1.4,1.5-2.5,2.8-3.3c1.3-0.8,2.9-1.3,4.9-1.3c1.8,0,3.3,0.4,4.7,1.1
		c1.3,0.7,2.4,1.8,3.1,3.3c0.7,1.5,1.1,3.3,1.1,5.4v16.6h-5.1v-15.9c0-1.9-0.5-3.4-1.5-4.4c-1-1.1-2.3-1.6-4-1.6
		c-1.2,0-2.2,0.3-3.1,0.8c-0.9,0.5-1.6,1.3-2.2,2.2C668.3,289.2,668,290.4,668,291.7z"/>
	<path class="st0" d="M711,287.5l-4.6,0.8c-0.2-0.6-0.5-1.1-0.9-1.7c-0.4-0.5-1-1-1.7-1.3c-0.7-0.3-1.6-0.5-2.6-0.5
		c-1.4,0-2.6,0.3-3.6,1c-1,0.6-1.4,1.5-1.4,2.5c0,0.9,0.3,1.6,1,2.1c0.6,0.5,1.7,1,3.1,1.3l4.1,0.9c2.4,0.6,4.2,1.4,5.4,2.6
		c1.2,1.2,1.8,2.6,1.8,4.5c0,1.6-0.4,2.9-1.3,4.2c-0.9,1.2-2.1,2.2-3.7,2.9c-1.6,0.7-3.4,1-5.5,1c-2.9,0-5.3-0.6-7.1-1.9
		c-1.8-1.2-3-3-3.4-5.3l4.9-0.7c0.3,1.3,0.9,2.2,1.9,2.9c0.9,0.6,2.2,1,3.7,1c1.7,0,3-0.3,4-1c1-0.7,1.5-1.5,1.5-2.6
		c0-0.8-0.3-1.5-0.9-2.1c-0.6-0.6-1.5-1-2.8-1.3l-4.4-1c-2.4-0.6-4.2-1.4-5.4-2.6c-1.2-1.2-1.7-2.7-1.7-4.6c0-1.5,0.4-2.9,1.3-4
		c0.9-1.2,2-2.1,3.6-2.7c1.5-0.6,3.2-1,5.2-1c2.8,0,5,0.6,6.6,1.8S710.4,285.5,711,287.5z"/>
	<path class="st0" d="M730.1,307.2v-34.7h21.8v4.5h-16.5v10.6h15.4v4.5h-15.4v10.6H752v4.5H730.1z"/>
	<path class="st0" d="M763.5,291.7v15.5h-5.1v-26h4.9v4.2h0.3c0.6-1.4,1.5-2.5,2.8-3.3c1.3-0.8,2.9-1.3,4.9-1.3
		c1.8,0,3.3,0.4,4.7,1.1c1.3,0.7,2.4,1.8,3.1,3.3c0.7,1.5,1.1,3.3,1.1,5.4v16.6h-5.1v-15.9c0-1.9-0.5-3.4-1.5-4.4
		c-1-1.1-2.3-1.6-4-1.6c-1.2,0-2.2,0.3-3.1,0.8c-0.9,0.5-1.6,1.3-2.2,2.2C763.8,289.2,763.5,290.4,763.5,291.7z"/>
	<path class="st0" d="M797.8,317.5c-2.1,0-3.8-0.3-5.3-0.8s-2.7-1.3-3.6-2.2c-0.9-0.9-1.6-1.9-2.1-2.9l4.4-1.8
		c0.3,0.5,0.7,1,1.2,1.6c0.5,0.6,1.2,1,2.1,1.4c0.9,0.4,2,0.6,3.4,0.6c1.9,0,3.5-0.5,4.8-1.4c1.3-0.9,1.9-2.4,1.9-4.4v-5.1h-0.3
		c-0.3,0.6-0.7,1.2-1.3,1.8c-0.6,0.7-1.4,1.3-2.3,1.8c-1,0.5-2.3,0.7-3.9,0.7c-2.1,0-3.9-0.5-5.5-1.4s-2.9-2.4-3.9-4.3
		c-1-1.9-1.4-4.2-1.4-7s0.5-5.1,1.4-7.1c0.9-2,2.2-3.5,3.9-4.5c1.6-1.1,3.5-1.6,5.6-1.6c1.6,0,2.9,0.3,3.9,0.8
		c1,0.5,1.8,1.2,2.3,1.9c0.6,0.7,1,1.3,1.3,1.9h0.4v-4.2h5v26.6c0,2.2-0.5,4.1-1.6,5.5c-1,1.4-2.4,2.5-4.2,3.2
		S800.1,317.5,797.8,317.5z M797.8,302.6c1.5,0,2.7-0.3,3.7-1c1-0.7,1.8-1.7,2.3-2.9c0.5-1.3,0.8-2.8,0.8-4.6c0-1.8-0.3-3.3-0.8-4.6
		c-0.5-1.3-1.3-2.4-2.3-3.1c-1-0.8-2.2-1.1-3.7-1.1c-1.5,0-2.8,0.4-3.8,1.2c-1,0.8-1.8,1.9-2.3,3.2c-0.5,1.3-0.8,2.8-0.8,4.5
		c0,1.7,0.3,3.2,0.8,4.5c0.5,1.3,1.3,2.3,2.3,3C795,302.2,796.3,302.6,797.8,302.6z"/>
	<path class="st0" d="M818.9,277.1c-0.9,0-1.6-0.3-2.3-0.9c-0.6-0.6-0.9-1.3-0.9-2.1c0-0.8,0.3-1.6,0.9-2.1c0.6-0.6,1.4-0.9,2.3-0.9
		c0.9,0,1.6,0.3,2.3,0.9c0.6,0.6,0.9,1.3,0.9,2.1c0,0.8-0.3,1.5-0.9,2.1C820.6,276.8,819.8,277.1,818.9,277.1z M816.4,307.2v-26h5.1
		v26H816.4z"/>
	<path class="st0" d="M833.3,291.7v15.5h-5.1v-26h4.9v4.2h0.3c0.6-1.4,1.5-2.5,2.8-3.3c1.3-0.8,2.9-1.3,4.9-1.3
		c1.8,0,3.3,0.4,4.7,1.1c1.3,0.7,2.4,1.8,3.1,3.3c0.7,1.5,1.1,3.3,1.1,5.4v16.6h-5.1v-15.9c0-1.9-0.5-3.4-1.5-4.4
		c-1-1.1-2.3-1.6-4-1.6c-1.2,0-2.2,0.3-3.1,0.8c-0.9,0.5-1.6,1.3-2.2,2.2C833.6,289.2,833.3,290.4,833.3,291.7z"/>
	<path class="st0" d="M868,307.7c-2.6,0-4.8-0.6-6.6-1.7c-1.8-1.1-3.3-2.7-4.3-4.7c-1-2-1.5-4.4-1.5-7.1c0-2.7,0.5-5,1.5-7
		c1-2,2.4-3.6,4.2-4.8c1.8-1.1,3.9-1.7,6.3-1.7c1.5,0,2.9,0.2,4.3,0.7c1.4,0.5,2.6,1.2,3.7,2.3c1.1,1,2,2.4,2.6,4
		c0.6,1.7,0.9,3.7,0.9,6v1.8h-20.7v-3.8h15.7c0-1.3-0.3-2.5-0.8-3.5c-0.5-1-1.3-1.8-2.3-2.4s-2.1-0.9-3.4-0.9c-1.4,0-2.7,0.3-3.7,1
		c-1.1,0.7-1.9,1.6-2.4,2.7c-0.6,1.1-0.9,2.3-0.9,3.6v3c0,1.7,0.3,3.2,0.9,4.4c0.6,1.2,1.5,2.1,2.6,2.8c1.1,0.6,2.4,1,3.9,1
		c1,0,1.8-0.1,2.6-0.4s1.5-0.7,2.1-1.2c0.6-0.6,1-1.2,1.3-2.1l4.8,0.9c-0.4,1.4-1.1,2.6-2.1,3.7s-2.2,1.9-3.7,2.5
		C871.6,307.4,869.9,307.7,868,307.7z"/>
	<path class="st0" d="M896,307.7c-2.6,0-4.8-0.6-6.6-1.7c-1.8-1.1-3.3-2.7-4.3-4.7c-1-2-1.5-4.4-1.5-7.1c0-2.7,0.5-5,1.5-7
		c1-2,2.4-3.6,4.2-4.8c1.8-1.1,3.9-1.7,6.3-1.7c1.5,0,2.9,0.2,4.3,0.7c1.4,0.5,2.6,1.2,3.7,2.3c1.1,1,2,2.4,2.6,4
		c0.6,1.7,0.9,3.7,0.9,6v1.8h-20.7v-3.8h15.7c0-1.3-0.3-2.5-0.8-3.5c-0.5-1-1.3-1.8-2.3-2.4c-1-0.6-2.1-0.9-3.4-0.9
		c-1.4,0-2.7,0.3-3.7,1c-1.1,0.7-1.9,1.6-2.4,2.7c-0.6,1.1-0.9,2.3-0.9,3.6v3c0,1.7,0.3,3.2,0.9,4.4c0.6,1.2,1.5,2.1,2.6,2.8
		c1.1,0.6,2.4,1,3.9,1c1,0,1.8-0.1,2.6-0.4s1.5-0.7,2.1-1.2c0.6-0.6,1-1.2,1.3-2.1l4.8,0.9c-0.4,1.4-1.1,2.6-2.1,3.7
		s-2.2,1.9-3.7,2.5C899.6,307.4,897.9,307.7,896,307.7z"/>
	<path class="st0" d="M912.8,307.2v-26h4.9v4.1h0.3c0.5-1.4,1.3-2.5,2.5-3.3c1.2-0.8,2.6-1.2,4.1-1.2c0.3,0,0.7,0,1.1,0
		c0.4,0,0.8,0.1,1,0.1v4.8c-0.2-0.1-0.6-0.1-1.1-0.2c-0.5-0.1-1-0.1-1.6-0.1c-1.2,0-2.3,0.3-3.2,0.8c-0.9,0.5-1.7,1.2-2.2,2.1
		c-0.5,0.9-0.8,1.9-0.8,3v15.9H912.8z"/>
	<path class="st0" d="M933.7,277.1c-0.9,0-1.6-0.3-2.3-0.9c-0.6-0.6-0.9-1.3-0.9-2.1c0-0.8,0.3-1.6,0.9-2.1c0.6-0.6,1.4-0.9,2.3-0.9
		c0.9,0,1.6,0.3,2.3,0.9c0.6,0.6,0.9,1.3,0.9,2.1c0,0.8-0.3,1.5-0.9,2.1C935.3,276.8,934.6,277.1,933.7,277.1z M931.1,307.2v-26h5.1
		v26H931.1z"/>
	<path class="st0" d="M948.1,291.7v15.5H943v-26h4.9v4.2h0.3c0.6-1.4,1.5-2.5,2.8-3.3c1.3-0.8,2.9-1.3,4.9-1.3
		c1.8,0,3.3,0.4,4.7,1.1c1.3,0.7,2.4,1.8,3.1,3.3c0.7,1.5,1.1,3.3,1.1,5.4v16.6h-5.1v-15.9c0-1.9-0.5-3.4-1.5-4.4
		c-1-1.1-2.3-1.6-4-1.6c-1.2,0-2.2,0.3-3.1,0.8c-0.9,0.5-1.6,1.3-2.2,2.2C948.3,289.2,948.1,290.4,948.1,291.7z"/>
	<path class="st0" d="M982.4,317.5c-2.1,0-3.8-0.3-5.3-0.8s-2.7-1.3-3.6-2.2c-0.9-0.9-1.6-1.9-2.1-2.9l4.4-1.8
		c0.3,0.5,0.7,1,1.2,1.6c0.5,0.6,1.2,1,2.1,1.4c0.9,0.4,2,0.6,3.4,0.6c1.9,0,3.5-0.5,4.8-1.4c1.3-0.9,1.9-2.4,1.9-4.4v-5.1h-0.3
		c-0.3,0.6-0.7,1.2-1.3,1.8c-0.6,0.7-1.4,1.3-2.3,1.8c-1,0.5-2.3,0.7-3.9,0.7c-2.1,0-3.9-0.5-5.5-1.4s-2.9-2.4-3.9-4.3
		c-1-1.9-1.4-4.2-1.4-7s0.5-5.1,1.4-7.1c0.9-2,2.2-3.5,3.9-4.5c1.6-1.1,3.5-1.6,5.6-1.6c1.6,0,2.9,0.3,3.9,0.8
		c1,0.5,1.8,1.2,2.3,1.9c0.6,0.7,1,1.3,1.3,1.9h0.4v-4.2h5v26.6c0,2.2-0.5,4.1-1.6,5.5c-1,1.4-2.4,2.5-4.2,3.2
		C986.6,317.1,984.6,317.5,982.4,317.5z M982.4,302.6c1.5,0,2.7-0.3,3.7-1c1-0.7,1.8-1.7,2.3-2.9c0.5-1.3,0.8-2.8,0.8-4.6
		c0-1.8-0.3-3.3-0.8-4.6c-0.5-1.3-1.3-2.4-2.3-3.1c-1-0.8-2.2-1.1-3.7-1.1c-1.5,0-2.8,0.4-3.8,1.2c-1,0.8-1.8,1.9-2.3,3.2
		c-0.5,1.3-0.8,2.8-0.8,4.5c0,1.7,0.3,3.2,0.8,4.5c0.5,1.3,1.3,2.3,2.3,3C979.6,302.2,980.9,302.6,982.4,302.6z"/>
</g>
<path class="st0" d="M423.3,160.8v15.1h-24.9v78.3h-18.7v-78.3h-24.9v-15.1H423.3z"/>
<path class="st0" d="M492,222.8h-54.2c0.4,5.4,2.3,9.6,5.6,12.6c3.3,3,7.4,4.6,12.2,4.6c7,0,11.9-3,14.9-9h20.2
	c-2.1,7.1-6.2,13-12.3,17.6c-6.1,4.6-13.5,6.9-22.4,6.9c-7.1,0-13.5-1.6-19.2-4.8c-5.7-3.2-10.1-7.7-13.3-13.5
	c-3.2-5.8-4.8-12.5-4.8-20.1c0-7.7,1.6-14.4,4.7-20.2c3.1-5.8,7.5-10.3,13.1-13.4c5.6-3.1,12.1-4.7,19.4-4.7c7,0,13.4,1.5,18.9,4.6
	c5.6,3,9.9,7.3,13,12.9c3.1,5.6,4.6,12,4.6,19.2C492.5,218.2,492.4,220.6,492,222.8z M473.1,210.2c-0.1-4.8-1.8-8.7-5.2-11.6
	c-3.4-2.9-7.5-4.4-12.5-4.4c-4.6,0-8.5,1.4-11.7,4.2c-3.2,2.8-5.1,6.7-5.8,11.7H473.1z"/>
<path class="st0" d="M534.4,182.4c3.9-2.2,8.3-3.3,13.3-3.3v19.7h-5c-5.9,0-10.3,1.4-13.3,4.2c-3,2.8-4.5,7.6-4.5,14.5v37h-18.7
	v-74.2h18.7v11.5C527.3,187.7,530.5,184.6,534.4,182.4z"/>
<path class="st0" d="M588.5,182.4c3.9-2.2,8.3-3.3,13.3-3.3v19.7h-5c-5.9,0-10.3,1.4-13.3,4.2c-3,2.8-4.5,7.6-4.5,14.5v37h-18.7
	v-74.2H579v11.5C581.4,187.7,584.6,184.6,588.5,182.4z"/>
<path class="st0" d="M614,196.9c3-5.8,7-10.3,12.2-13.4c5.1-3.1,10.9-4.7,17.2-4.7c5.5,0,10.4,1.1,14.5,3.3c4.2,2.2,7.5,5,10,8.4
	v-10.6h18.9v74.2h-18.9v-10.8c-2.4,3.5-5.7,6.4-10,8.6c-4.2,2.3-9.1,3.4-14.7,3.4c-6.2,0-11.9-1.6-17.1-4.8
	c-5.1-3.2-9.2-7.7-12.2-13.6c-3-5.8-4.5-12.6-4.5-20.1C609.5,209.4,611,202.8,614,196.9z M665.2,205.5c-1.8-3.3-4.2-5.8-7.2-7.5
	c-3-1.7-6.3-2.6-9.8-2.6c-3.5,0-6.7,0.8-9.6,2.5c-2.9,1.7-5.3,4.2-7.2,7.4c-1.8,3.3-2.7,7.1-2.7,11.6c0,4.5,0.9,8.4,2.7,11.7
	c1.8,3.3,4.2,5.9,7.2,7.7c3,1.8,6.2,2.7,9.6,2.7c3.5,0,6.7-0.9,9.8-2.6c3-1.7,5.4-4.2,7.2-7.5c1.8-3.3,2.7-7.2,2.7-11.7
	C667.9,212.6,667,208.7,665.2,205.5z"/>
<path class="st0" d="M782.4,254.2h-18.7l-42.4-64.1v64.1h-18.7v-93.6h18.7l42.4,64.3v-64.3h18.7V254.2z"/>
<path class="st0" d="M869.3,222.8H815c0.4,5.4,2.3,9.6,5.6,12.6c3.3,3,7.4,4.6,12.2,4.6c7,0,11.9-3,14.9-9h20.2
	c-2.1,7.1-6.2,13-12.3,17.6c-6.1,4.6-13.5,6.9-22.4,6.9c-7.1,0-13.5-1.6-19.2-4.8c-5.7-3.2-10.1-7.7-13.3-13.5
	c-3.2-5.8-4.8-12.5-4.8-20.1c0-7.7,1.6-14.4,4.7-20.2c3.1-5.8,7.5-10.3,13.1-13.4c5.6-3.1,12.1-4.7,19.4-4.7c7,0,13.4,1.5,18.9,4.6
	c5.6,3,9.9,7.3,13,12.9c3.1,5.6,4.6,12,4.6,19.2C869.8,218.2,869.6,220.6,869.3,222.8z M850.4,210.2c-0.1-4.8-1.8-8.7-5.2-11.6
	c-3.4-2.9-7.5-4.4-12.5-4.4c-4.6,0-8.5,1.4-11.7,4.2c-3.2,2.8-5.1,6.7-5.8,11.7H850.4z"/>
<path class="st0" d="M924.4,254.2l-15.3-23l-13.5,23h-20.1l24.2-37.2l-24.5-37h21.2l15.1,22.9l13.7-22.9h20.1l-24.4,37l24.6,37.2
	H924.4z"/>
<path class="st0" d="M977.6,195.5v35.9c0,2.5,0.6,4.3,1.8,5.4c1.2,1.1,3.2,1.7,6.1,1.7h8.7v15.8h-11.8c-15.8,0-23.7-7.7-23.7-23
	v-35.7h-8.8v-15.4h8.8v-19.4h18.9v19.4h16.6v15.4H977.6z"/>
<g>
	<path class="st0" d="M137.3,242.5c0.9,0.1,1.7,0.1,2.6,0.2c11.4,1.1,22.7,4.9,32.8,9.6c7.3,3.4,14.8,7.3,22.4,10.3
		c0,0-0.1-0.1-0.1-0.1c0.4,0.2,0.9,0.4,1.3,0.6h0c2,0.8,4.1,1.5,6.2,2.1c6.2,1.9,12.6,3.1,19,3.8c7.5,0.8,15.2,0.9,22.7-0.4
		c22.6-3.5,42.1-19.8,53.2-39.8c1.4-2.5,2.7-5.1,3.9-7.7c-3-19.4-11.3-37-23.4-51.3l0,0c-1.3-1.6-2.7-3.1-4.1-4.6
		c-4-4.2-8.3-8-12.9-11.5c1.1,3.7,1.8,7.6,2.2,11.6c0.2,2.2,0.3,4.4,0.3,6.6c0,35.8-28.8,64.9-64.5,65.3c-0.3,0-0.6,0-0.8,0H198
		c-0.2,0-0.5,0-0.7,0c-3.9,0-7.4-0.3-10.7-0.8c-16.3-2.3-26.4-9.3-36.8-15.1c-3.8-2.1-7.6-4.1-11.7-5.6c-5.2-1.9-10.9-3.1-17.8-3.1
		c-17.5,0-25.9,11.8-26.7,20.9c0,0,0,0,0,0c0,1.2-0.1,2.4-0.1,3.7c0,5.8,0.5,11.5,1.4,17.1c7.2-5.7,15.9-9.8,24.9-11.3
		C125.6,242,131.4,242.1,137.3,242.5z"/>
	<path class="st0" d="M302.4,232.7c-0.5,1-0.9,2-1.4,2.9c-4.9,9.8-10.7,19.1-17.7,27.3c-13.5,15.7-31.1,27-53.4,28.2
		c-0.1,0-0.1,0-0.2,0c-2.2,0.1-4.7,0.2-6.9,0.2c-10.4,0.1-20.9-1-30.9-3.7c-12-3.1-22.5-8.4-33.5-13.2c-1.7-0.7-3.4-1.4-5.1-2l0,0
		c-0.6-0.2-1.2-0.4-1.8-0.6c-0.4-0.1-0.7-0.2-1.1-0.4v0c-9-2.9-17.7-3.9-27.8-3.6c-8.2,0-16.3,1.2-22.5,5.8c0.8,2.1,1.6,4.2,2.6,6.3
		c16.3,36.5,52.9,61.9,95.5,61.9c2.7,0,5.5-0.1,8.1-0.3c17.3-1.3,33.4-6.9,47.3-15.6c17.6-11,31.7-27.2,40.2-46.4
		c3.8-8.6,6.5-17.7,7.9-27.3c0.7-4.9,1.1-9.9,1.1-15C302.5,235.7,302.5,234.2,302.4,232.7z"/>
	<path class="st0" d="M189.1,210c2.9,0.7,5.9,1,9,1c21.7,0,39.2-17.6,39.2-39.2c0-0.3,0-0.6,0-0.9c0-0.1,0-0.2,0-0.2
		c-0.1-1.6-0.2-3.2-0.4-4.8c0,0,0.1,0,0.1,0c-1.2-9.5-4.9-19.5-9.5-29c-2.9-5.8-6.2-11.5-9.4-16.6c-3-4.7-6-9-8.8-12.8
		c-1-1.4-2-2.7-2.9-3.9c-4.8-6.3-8.2-10.2-8.2-10.2s-3.4,3.9-8.2,10.2c-0.9,1.2-1.9,2.5-2.9,3.9c-5.7,7.8-12.6,18.2-18.1,29.3
		c-3.1,6.2-5.8,12.7-7.5,19.1c-1.4,5-2.3,10-2.4,14.8c0,0.1,0,0.2,0,0.2c0,0.3,0,0.6,0,0.9C158.9,190.4,171.8,206,189.1,210z"/>
</g>
<g>
</g>
<g>
</g>
<g>
</g>
<g>
</g>
<g>
</g>
<g>
</g>
<g>
</g>
<g>
</g>
<g>
</g>
<g>
</g>
<g>
</g>
<g>
</g>
<g>
</g>
<g>
</g>
<g>
</g>
</svg>
